<?xml version="1.0" encoding="UTF-8"?>
<svg width="145px" height="18px" viewBox="0 0 145 18" version="1.1" xmlns="http://www.w3.org/2000/svg" xmlns:xlink="http://www.w3.org/1999/xlink">
    <title>Group 3</title>
    <g id="Page-1" stroke="none" stroke-width="1" fill="none" fill-rule="evenodd">
        <g id="mob_4-results-2" transform="translate(-137.000000, -52.000000)">
            <g id="Group-3" transform="translate(137.944000, 52.120000)">
                <path d="M5.568,12.992 C6.304,12.992 6.96266667,12.808 7.544,12.44 C8.12533333,12.072 8.584,11.5413333 8.92,10.848 C9.256,10.1546667 9.424,9.344 9.424,8.416 C9.424,7.47733333 9.256,6.664 8.92,5.976 C8.584,5.288 8.12533333,4.76 7.544,4.392 C6.96266667,4.024 6.304,3.84 5.568,3.84 C4.88533333,3.84 4.29866667,3.99466667 3.808,4.304 C3.31733333,4.61333333 2.96,5.03466667 2.736,5.568 L2.736,5.568 L2.736,1.04 L0,1.04 L0,12.88 L2.736,12.88 L2.736,11.264 C2.96,11.7973333 3.31733333,12.2186667 3.808,12.528 C4.29866667,12.8373333 4.88533333,12.992 5.568,12.992 Z M4.688,10.592 C4.112,10.592 3.64,10.3946667 3.272,10 C2.904,9.60533333 2.72,9.07733333 2.72,8.416 C2.72,7.744 2.904,7.21333333 3.272,6.824 C3.64,6.43466667 4.112,6.24 4.688,6.24 C5.27466667,6.24 5.74666667,6.432 6.104,6.816 C6.46133333,7.2 6.64,7.73333333 6.64,8.416 C6.64,9.09866667 6.46133333,9.632 6.104,10.016 C5.74666667,10.4 5.27466667,10.592 4.688,10.592 Z M14.88,12.992 C15.6266667,12.992 16.304,12.8506667 16.912,12.568 C17.52,12.2853333 18.0213333,11.896 18.416,11.4 C18.8106667,10.904 19.0666667,10.3413333 19.184,9.712 L19.184,9.712 L16.288,9.712 C16.2026667,10.032 16.0266667,10.2933333 15.76,10.496 C15.4933333,10.6986667 15.1573333,10.8 14.752,10.8 C14.272,10.8 13.8773333,10.6533333 13.568,10.36 C13.2586667,10.0666667 13.088,9.584 13.056,8.912 L13.056,8.912 L19.248,8.912 C19.3013333,8.64533333 19.328,8.4 19.328,8.176 C19.328,7.32266667 19.144,6.568 18.776,5.912 C18.408,5.256 17.888,4.74666667 17.216,4.384 C16.544,4.02133333 15.7653333,3.84 14.88,3.84 C14.0053333,3.84 13.2266667,4.024 12.544,4.392 C11.8613333,4.76 11.3306667,5.288 10.952,5.976 C10.5733333,6.664 10.384,7.47733333 10.384,8.416 C10.384,9.344 10.576,10.1546667 10.96,10.848 C11.344,11.5413333 11.8746667,12.072 12.552,12.44 C13.2293333,12.808 14.0053333,12.992 14.88,12.992 Z M16.56,7.76 L13.072,7.76 C13.1146667,7.184 13.3013333,6.74666667 13.632,6.448 C13.9626667,6.14933333 14.3786667,6 14.88,6 C15.36,6 15.7626667,6.14666667 16.088,6.44 C16.4133333,6.73333333 16.5706667,7.17333333 16.56,7.76 L16.56,7.76 Z M24.784,12.992 C25.5306667,12.992 26.208,12.8506667 26.816,12.568 C27.424,12.2853333 27.9253333,11.896 28.32,11.4 C28.7146667,10.904 28.9706667,10.3413333 29.088,9.712 L29.088,9.712 L26.192,9.712 C26.1066667,10.032 25.9306667,10.2933333 25.664,10.496 C25.3973333,10.6986667 25.0613333,10.8 24.656,10.8 C24.176,10.8 23.7813333,10.6533333 23.472,10.36 C23.1626667,10.0666667 22.992,9.584 22.96,8.912 L22.96,8.912 L29.152,8.912 C29.2053333,8.64533333 29.232,8.4 29.232,8.176 C29.232,7.32266667 29.048,6.568 28.68,5.912 C28.312,5.256 27.792,4.74666667 27.12,4.384 C26.448,4.02133333 25.6693333,3.84 24.784,3.84 C23.9093333,3.84 23.1306667,4.024 22.448,4.392 C21.7653333,4.76 21.2346667,5.288 20.856,5.976 C20.4773333,6.664 20.288,7.47733333 20.288,8.416 C20.288,9.344 20.48,10.1546667 20.864,10.848 C21.248,11.5413333 21.7786667,12.072 22.456,12.44 C23.1333333,12.808 23.9093333,12.992 24.784,12.992 Z M26.464,7.76 L22.976,7.76 C23.0186667,7.184 23.2053333,6.74666667 23.536,6.448 C23.8666667,6.14933333 24.2826667,6 24.784,6 C25.264,6 25.6666667,6.14666667 25.992,6.44 C26.3173333,6.73333333 26.4746667,7.17333333 26.464,7.76 L26.464,7.76 Z M33.392,12.88 L33.392,8.816 C33.392,8.08 33.592,7.55733333 33.992,7.248 C34.392,6.93866667 34.9546667,6.784 35.68,6.784 L35.68,6.784 L36.464,6.784 L36.464,3.856 C35.8346667,3.856 35.2506667,4.016 34.712,4.336 C34.1733333,4.656 33.7333333,5.088 33.392,5.632 L33.392,5.632 L33.392,3.952 L30.656,3.952 L30.656,12.88 L33.392,12.88 Z M69.152,12.88 L69.152,8.816 C69.152,8.08 69.352,7.55733333 69.752,7.248 C70.152,6.93866667 70.7146667,6.784 71.44,6.784 L71.44,6.784 L72.224,6.784 L72.224,3.856 C71.5946667,3.856 71.0106667,4.016 70.472,4.336 C69.9333333,4.656 69.4933333,5.088 69.152,5.632 L69.152,5.632 L69.152,3.952 L66.416,3.952 L66.416,12.88 L69.152,12.88 Z M74.752,2.864 C75.2426667,2.864 75.6373333,2.728 75.936,2.456 C76.2346667,2.184 76.384,1.84533333 76.384,1.44 C76.384,1.024 76.2346667,0.68 75.936,0.408 C75.6373333,0.136 75.2426667,0 74.752,0 C74.2613333,0 73.8666667,0.136 73.568,0.408 C73.2693333,0.68 73.12,1.024 73.12,1.44 C73.12,1.84533333 73.2693333,2.184 73.568,2.456 C73.8666667,2.728 74.2613333,2.864 74.752,2.864 Z M76.112,12.88 L76.112,3.952 L73.376,3.952 L73.376,12.88 L76.112,12.88 Z M82.544,17.264 C83.5253333,17.264 84.3466667,17.0666667 85.008,16.672 C85.6693333,16.2773333 86.16,15.7466667 86.48,15.08 C86.8,14.4133333 86.96,13.664 86.96,12.832 L86.96,12.832 L86.96,3.952 L84.24,3.952 L84.24,5.568 C84.0053333,5.03466667 83.6426667,4.61333333 83.152,4.304 C82.6613333,3.99466667 82.0746667,3.84 81.392,3.84 C80.656,3.84 79.9973333,4.024 79.416,4.392 C78.8346667,4.76 78.376,5.288 78.04,5.976 C77.704,6.664 77.536,7.47733333 77.536,8.416 C77.536,9.344 77.704,10.1546667 78.04,10.848 C78.376,11.5413333 78.8346667,12.072 79.416,12.44 C79.9973333,12.808 80.656,12.992 81.392,12.992 C82.0746667,12.992 82.6613333,12.8373333 83.152,12.528 C83.6426667,12.2186667 84.0053333,11.7973333 84.24,11.264 L84.24,11.264 L84.24,12.832 C84.24,13.5466667 84.0666667,14.0666667 83.72,14.392 C83.3733333,14.7173333 82.9173333,14.88 82.352,14.88 C81.8613333,14.88 81.464,14.7786667 81.16,14.576 C80.856,14.3733333 80.6613333,14.0906667 80.576,13.728 L80.576,13.728 L77.872,13.728 C78.032,14.816 78.5146667,15.6773333 79.32,16.312 C80.1253333,16.9466667 81.2,17.264 82.544,17.264 Z M82.272,10.592 C81.6853333,10.592 81.2133333,10.4 80.856,10.016 C80.4986667,9.632 80.32,9.09866667 80.32,8.416 C80.32,7.73333333 80.4986667,7.2 80.856,6.816 C81.2133333,6.432 81.6853333,6.24 82.272,6.24 C82.848,6.24 83.32,6.43466667 83.688,6.824 C84.056,7.21333333 84.24,7.744 84.24,8.416 C84.24,9.07733333 84.056,9.60533333 83.688,10 C83.32,10.3946667 82.848,10.592 82.272,10.592 Z M91.584,12.88 L91.584,8.144 C91.584,7.49333333 91.7466667,6.992 92.072,6.64 C92.3973333,6.288 92.8373333,6.112 93.392,6.112 C93.9146667,6.112 94.3333333,6.28 94.648,6.616 C94.9626667,6.952 95.12,7.41866667 95.12,8.016 L95.12,8.016 L95.12,12.88 L97.856,12.88 L97.856,7.696 C97.856,6.50133333 97.5546667,5.56266667 96.952,4.88 C96.3493333,4.19733333 95.536,3.856 94.512,3.856 C93.8293333,3.856 93.2346667,4.01066667 92.728,4.32 C92.2213333,4.62933333 91.84,5.05066667 91.584,5.584 L91.584,5.584 L91.584,1.04 L88.848,1.04 L88.848,12.88 L91.584,12.88 Z M104.72,12.88 L104.72,10.528 L103.856,10.528 C103.514667,10.528 103.272,10.4586667 103.128,10.32 C102.984,10.1813333 102.912,9.936 102.912,9.584 L102.912,9.584 L102.912,6.256 L104.704,6.256 L104.704,3.952 L102.912,3.952 L102.912,1.76 L100.176,1.76 L100.176,3.952 L98.976,3.952 L98.976,6.256 L100.176,6.256 L100.176,9.536 C100.176,10.7306667 100.466667,11.5866667 101.048,12.104 C101.629333,12.6213333 102.442667,12.88 103.488,12.88 L103.488,12.88 L104.72,12.88 Z M112.192,12.88 L112.192,8.144 C112.192,7.49333333 112.354667,6.992 112.68,6.64 C113.005333,6.288 113.445333,6.112 114,6.112 C114.522667,6.112 114.941333,6.28 115.256,6.616 C115.570667,6.952 115.728,7.41866667 115.728,8.016 L115.728,8.016 L115.728,12.88 L118.464,12.88 L118.464,7.696 C118.464,6.50133333 118.162667,5.56266667 117.56,4.88 C116.957333,4.19733333 116.144,3.856 115.12,3.856 C114.437333,3.856 113.842667,4.01066667 113.336,4.32 C112.829333,4.62933333 112.448,5.05066667 112.192,5.584 L112.192,5.584 L112.192,3.952 L109.456,3.952 L109.456,12.88 L112.192,12.88 Z M124.448,12.992 C125.333333,12.992 126.125333,12.808 126.824,12.44 C127.522667,12.072 128.072,11.5413333 128.472,10.848 C128.872,10.1546667 129.072,9.344 129.072,8.416 C129.072,7.488 128.872,6.67733333 128.472,5.984 C128.072,5.29066667 127.522667,4.76 126.824,4.392 C126.125333,4.024 125.333333,3.84 124.448,3.84 C123.562667,3.84 122.768,4.024 122.064,4.392 C121.36,4.76 120.808,5.29066667 120.408,5.984 C120.008,6.67733333 119.808,7.488 119.808,8.416 C119.808,9.344 120.008,10.1546667 120.408,10.848 C120.808,11.5413333 121.36,12.072 122.064,12.44 C122.768,12.808 123.562667,12.992 124.448,12.992 Z M124.448,10.608 C123.925333,10.608 123.485333,10.4213333 123.128,10.048 C122.770667,9.67466667 122.592,9.13066667 122.592,8.416 C122.592,7.70133333 122.770667,7.15466667 123.128,6.776 C123.485333,6.39733333 123.925333,6.208 124.448,6.208 C124.970667,6.208 125.408,6.39733333 125.76,6.776 C126.112,7.15466667 126.288,7.70133333 126.288,8.416 C126.288,9.13066667 126.112,9.67466667 125.76,10.048 C125.408,10.4213333 124.970667,10.608 124.448,10.608 Z M134.96,12.88 L136.592,6.896 L138.208,12.88 L141.264,12.88 L143.552,3.952 L141.008,3.952 L139.824,10.4 L138.112,3.952 L135.2,3.952 L133.536,10.384 L132.352,3.952 L129.616,3.952 L131.904,12.88 L134.96,12.88 Z" id="beerrightnow" fill="#7C87A1" fill-rule="nonzero"></path>
                <polygon id="Rectangle" fill="#188172" transform="translate(56.056000, 7.465786) rotate(45.000000) translate(-56.056000, -7.465786) " points="51.056 2.46578644 61.056 2.46578644 61.056 12.4657864 56.3602757 12.4657864 51.056 12.4657864"></polygon>
                <circle id="Oval-Copy-3" fill="#FFC226" cx="46.056" cy="6.88" r="6"></circle>
            </g>
        </g>
    </g>
</svg>